# xmcd
# 
# Track frame offsets:
#     150
#     21704
#     43354
#     68328
#     85350
#     114667
#     140197
#     159574
#     180563
#     201793
#     224567
#     252392
#     274299
#     292348
#     307016
# 
# Disc length: 4419
# 
# Revision: 0
# Processed by: cddbd v1.5.2PL0 Copyright (c) Steve Scherf et al.
# Submitted via: BonkEnc v1.0beta4
# 
DISCID=fc11410f
DTITLE=George Michael - Ladies and Gentlemen - The Best of George Michael CD2
DYEAR=1998
DGENRE=Blues
TTITLE0=Outside
TTITLE1=As (With Mary J. Blige)
TTITLE2=Fastlove
TTITLE3=Too Funky
TTITLE4=Freedom 90
TTITLE5=Star People 97
TTITLE6=Killer - Papa Was A Rollin' Stone
TTITLE7=I Want Your Sex (Part II)
TTITLE8=The Strangest Thing 97
TTITLE9=Fantasy
TTITLE10=Spinning The Wheel
TTITLE11=Waiting For That Day
TTITLE12=I Knew Your Were Waiting (For Me) (With Aretha Franklin)
TTITLE13=Faith
TTITLE14=Somebody To Love (With Queen)
EXTD=YEAR: 1998  ID3G:   0
EXTT0=
EXTT1=
EXTT2=
EXTT3=
EXTT4=
EXTT5=
EXTT6=
EXTT7=
EXTT8=
EXTT9=
EXTT10=
EXTT11=
EXTT12=
EXTT13=
EXTT14=
PLAYORDER=
